# xmcd
#
# Track frame offsets: 
#        150
#        13762
#        28153
#        36426
#        46586
#        58599
#        68459
#        80983
#        92518
#        107047
#        118813
#        131200
#        144596
#        158635
#        174999
#        186236
#        199058
#        209304
#        220590
#        232597
#        245981
#        260523
#        274236
#        283902
#        295178
#        306642
#        320073
#
# Disc length: 4410 seconds
#
# Revision: 0
# Processed by: cddbd v1.5.1PL2 Copyright (c) Steve Scherf et al.
# Submitted via: ExactAudioCopy v0.95b1
#
DISCID=9f11381b
DTITLE=The Osborne Brothers - 1968-1974 Disc 2
DYEAR=1900
DGENRE=Bluegrass
TTITLE0=There'll Be No Teardrops Tonight
TTITLE1=You Win Again
TTITLE2=Blue Moon Of Kentucky
TTITLE3=Where Does The Good Times Go
TTITLE4=Put It Off Until Tomorrow
TTITLE5=Flyin' South
TTITLE6=Will You Visit Me On Sundays
TTITLE7=Nine Pound Hammer
TTITLE8=When The Grass Grows Over Me
TTITLE9=Tennessee Hound Dog
TTITLE10=Somebody's Back In Town
TTITLE11=Beneath Still Waters
TTITLE12=Ruby, Are You Mad 
TTITLE13=Siempre
TTITLE14=Searching For Yesterday
TTITLE15=Listening To The Rain
TTITLE16=Georgia Piney Woods
TTITLE17=Fightin' Side Of Me
TTITLE18=Let Me Be The First To Know
TTITLE19=Windy City
TTITLE20=Kaw-Liga
TTITLE21=My Sweet Love Ain't Around
TTITLE22=You're Running Wild
TTITLE23=My Old Kentucky Home (Turpentine And Dandelion Wine)
TTITLE24=Tennessee Stud
TTITLE25=My Heart Would Know
TTITLE26=Muddy Bottom
EXTD=
EXTT0=
EXTT1=
EXTT2=
EXTT3=
EXTT4=
EXTT5=
EXTT6=
EXTT7=
EXTT8=
EXTT9=
EXTT10=
EXTT11=
EXTT12=
EXTT13=
EXTT14=
EXTT15=
EXTT16=
EXTT17=
EXTT18=
EXTT19=
EXTT20=
EXTT21=
EXTT22=
EXTT23=
EXTT24=
EXTT25=
EXTT26=
PLAYORDER=
